<?xml version="1.0" encoding="UTF-8"?>
<svg version="1.1" xmlns="http://www.w3.org/2000/svg" width="512" height="512">
<path d="M0 0 C0.64761795 -0.00846954 1.2952359 -0.01693909 1.96247864 -0.02566528 C4.10596331 -0.04908044 6.24873097 -0.0500557 8.39233398 -0.04882812 C9.88866969 -0.0559324 11.38500267 -0.06363179 12.8813324 -0.07189941 C16.0228531 -0.0853584 19.16412257 -0.08690915 22.30566406 -0.08105469 C26.3081812 -0.07518901 30.30947248 -0.10561079 34.31175327 -0.14617157 C37.40643164 -0.17219452 40.50082174 -0.17491232 43.59559441 -0.17127991 C45.0694274 -0.17296086 46.5432752 -0.18250361 48.0170002 -0.20042419 C59.01872296 -0.31937672 67.10432265 1.20376529 75.45092773 8.73242188 C80.55321199 14.23181788 83.70398342 20.84618235 83.69618225 28.37431335 C83.69824425 29.9076683 83.69824425 29.9076683 83.7003479 31.47200012 C83.69495499 33.15298042 83.69495499 33.15298042 83.68945312 34.86791992 C83.68959915 36.04854004 83.68974518 37.22916016 83.68989563 38.44555664 C83.68931797 41.68289629 83.68429956 44.92019282 83.67732167 48.15752387 C83.67107421 51.54078977 83.67048323 54.92405649 83.66929626 58.30732727 C83.66618706 64.71398403 83.6579792 71.12062375 83.64794677 77.527273 C83.63677289 84.82103456 83.63127197 92.11479694 83.62625134 99.40856493 C83.61579626 114.41236008 83.59820476 129.41613927 83.57592773 144.41992188 C84.12863055 144.41916243 84.68133337 144.41840299 85.25078475 144.41762054 C118.02692166 144.37283968 150.80305088 144.33853627 183.57921153 144.31779122 C187.51691906 144.31528988 191.45462654 144.31270123 195.39233398 144.31005859 C196.17624257 144.30953397 196.96015115 144.30900935 197.76781453 144.30846883 C210.4516267 144.29977225 223.13542069 144.2840064 235.81922208 144.26561628 C248.83927211 144.24689645 261.85931264 144.23580074 274.87937558 144.23174489 C282.90989412 144.22900415 290.94036129 144.22035563 298.97086401 144.20408894 C305.13434282 144.19224202 311.29778265 144.1910158 317.46127129 144.19370651 C319.98556395 144.19315688 322.50985858 144.18918649 325.03413963 144.18151093 C328.48579257 144.17153145 331.9372273 144.1739641 335.3888855 144.17941284 C336.88017198 144.17067432 336.88017198 144.17067432 338.40158546 144.16175926 C349.02838669 144.20696757 358.04676651 145.74684755 366.57592773 152.41992188 C374.92462266 161.08498839 376.01523593 169.3469758 375.94482422 180.98681641 C375.94729503 182.35903218 375.95113627 183.73124607 375.95623779 185.10345459 C375.96454733 188.04724565 375.96379276 190.99084306 375.95605278 193.93463516 C375.94443376 198.59094383 375.95666121 203.24700522 375.97267151 207.90328979 C376.00879928 219.46415744 376.01509346 231.02501851 376.01257324 242.5859375 C376.01086204 251.58056429 376.01797059 260.57498811 376.05255181 269.56955802 C376.06934063 274.19719684 376.06755682 278.82434021 376.05172908 283.45197701 C376.04593213 286.33015544 376.05667136 289.20809881 376.07197571 292.08623505 C376.07747653 294.05449752 376.0630917 296.02278416 376.04811096 297.99099731 C376.05768829 299.16573608 376.06726563 300.34047485 376.07713318 301.55081177 C376.07692389 302.56951921 376.07671461 303.58822666 376.07649899 304.63780403 C376.70341368 308.13009508 378.27531142 309.78118747 380.57592773 312.41992188 C380.57592773 313.07992188 380.57592773 313.73992187 380.57592773 314.41992188 C381.16631836 314.68675781 381.75670898 314.95359375 382.36499023 315.22851562 C384.61451814 316.44071706 386.11108791 317.72167019 387.95092773 319.48242188 C392.20079345 323.32256518 396.84972634 326.27626562 401.73950195 329.22290039 C405.0333748 331.24860025 407.68893051 332.98901783 409.57592773 336.41992188 C409.458597 339.7638478 409.34418488 342.30859823 407.4092865 345.10752869 C404.73340934 347.023031 402.63698085 346.82261224 399.3671875 346.85571289 C398.08477676 346.87485245 396.80236603 346.893992 395.48109436 346.91371155 C394.07651102 346.9183014 392.67192312 346.92164124 391.26733398 346.92382812 C389.82062995 346.93347597 388.37392881 346.94356895 386.92723083 346.9540863 C383.8882674 346.97206432 380.84955975 346.97760661 377.81054688 346.97583008 C373.9470267 346.97552727 370.0851865 347.01625862 366.22206211 347.06814671 C363.22851814 347.10180714 360.23536522 347.10757841 357.24165154 347.1060009 C355.81968402 347.10950496 354.39770234 347.12256882 352.97592354 347.145998 C342.51207169 347.30210704 333.68310022 345.7574338 325.58058167 338.67604065 C319.27155588 332.09880977 316.44628846 323.22543197 316.45567322 314.26298523 C316.45361122 312.73812752 316.45361122 312.73812752 316.45150757 311.1824646 C316.45510284 310.07835236 316.45869812 308.97424011 316.46240234 307.83666992 C316.46225632 306.66551132 316.46211029 305.49435272 316.46195984 304.28770447 C316.46265616 300.41899764 316.47043551 296.55033904 316.47827148 292.68164062 C316.48013666 289.99835631 316.48160929 287.31507466 316.4825592 284.63179016 C316.48566443 278.29249023 316.49386691 271.95320759 316.50390869 265.61391526 C316.51509495 258.3950757 316.52058661 251.17623531 316.52560413 243.95738924 C316.53605021 229.11155744 316.55363398 214.2657408 316.57592773 199.41992188 C316.02110895 199.42106104 315.46629016 199.4222002 314.89465868 199.42337388 C281.99327168 199.4905447 249.0919019 199.54200004 216.19046167 199.57311786 C212.2377328 199.57686987 208.28500406 199.58075285 204.33227539 199.5847168 C203.5453762 199.58550373 202.758477 199.58629066 201.94773237 199.58710144 C189.21540928 199.60014643 176.48312693 199.62379527 163.75082798 199.65138026 C150.68105881 199.67945971 137.61131094 199.6961035 124.54151285 199.70218736 C116.48025703 199.70629854 108.41911637 199.71927163 100.35789602 199.74367128 C94.17090411 199.76144124 87.98399956 199.76328108 81.79698563 199.75924492 C79.26301363 199.76006939 76.72903722 199.76602531 74.19509125 199.7775383 C70.730213 199.79250713 67.26582387 199.78885904 63.80093384 199.78068542 C62.8028519 199.78942395 61.80476997 199.79816247 60.77644312 199.8071658 C51.16796093 199.74607882 43.07882146 197.73483331 35.62280273 191.52148438 C29.50102555 185.23614826 26.44162164 178.5189499 26.46481323 169.82965088 C26.46514053 168.69138855 26.46546783 167.55312622 26.46580505 166.38037109 C26.47104691 165.13562012 26.47628876 163.89086914 26.48168945 162.60839844 C26.48375326 160.5909996 26.48580533 158.57360071 26.48741651 156.55620146 C26.48976709 154.38908866 26.49426084 152.22198712 26.49895859 150.05487823 C26.50737376 145.5324663 26.50192179 141.01013909 26.49295044 136.48773193 C26.49074393 135.34183322 26.49074393 135.34183322 26.48849285 134.17278504 C26.48542215 132.61072022 26.48230212 131.04865549 26.47913384 129.48659086 C26.45796709 118.96069113 26.44422873 108.43506843 26.47631836 97.90917969 C26.49787443 90.80542363 26.49466269 83.70215465 26.46290982 76.5984304 C26.44708631 72.84201103 26.44375964 69.08652307 26.47066879 65.33014679 C26.49578121 61.79362334 26.48806179 58.25865695 26.45578957 54.72220612 C26.44684411 52.81529907 26.47241323 50.90832648 26.4992218 49.00158691 C26.39733531 41.94244519 25.51692684 37.97585439 20.39776802 32.96377182 C17.6573376 30.64149725 14.92441048 28.43702882 11.95092773 26.41992188 C11.35699219 26.00476318 10.76305664 25.58960449 10.15112305 25.16186523 C4.95291743 21.57076466 -0.42333324 18.29718284 -5.87719727 15.11132812 C-8.42407227 13.41992188 -8.42407227 13.41992188 -10.42407227 10.41992188 C-10.10260365 4.4191744 -10.10260365 4.4191744 -8.27479553 1.72741699 C-5.53503732 -0.20816168 -3.33105314 0.02394556 0 0 Z " fill="#D35DFF" transform="translate(56.424072265625,82.580078125)"/>
<path d="M0 0 C18.15 0 36.3 0 55 0 C55.08032734 30.08705026 55.08032734 30.08705026 55.10050774 44.98381615 C55.11157625 53.02976222 55.1256129 61.07566667 55.15087891 69.12158203 C55.1708783 75.49341984 55.18373191 81.86522619 55.18817699 88.23709452 C55.19077333 91.6077016 55.19683088 94.97821873 55.21146011 98.34879684 C55.22603246 102.12109403 55.22797551 105.89320643 55.22705078 109.66552734 C55.23424133 110.77036469 55.24143188 111.87520203 55.24884033 113.01351929 C55.21865585 124.43452949 53.94239201 133.59606298 45.98828125 142.16796875 C37.06315296 150.71926968 28.47400684 151.44212647 16.43725586 151.3371582 C15.08931999 151.33635037 13.74138267 151.33694935 12.39344788 151.33883667 C9.50752158 151.34038928 6.62180597 151.33308134 3.73591423 151.31899452 C-0.83315063 151.29773857 -5.40196287 151.30265394 -9.97105408 151.3120575 C-22.9577371 151.33485897 -35.94426584 151.3229944 -48.9309082 151.28491211 C-56.11630523 151.26407178 -63.30138592 151.26480772 -70.48677725 151.28844708 C-75.02351082 151.30208174 -79.55911908 151.2890449 -84.09573948 151.25584948 C-86.92279764 151.24145324 -89.74935715 151.25218907 -92.57637978 151.26983261 C-94.4999614 151.27449651 -96.42354427 151.24945201 -98.34695435 151.2233429 C-106.02168593 151.30495812 -110.54231171 152.48464113 -116 158 C-121.76878656 163.94453813 -126.2101767 171.13818707 -130.67529297 178.08569336 C-133.79403056 182.89701528 -133.79403056 182.89701528 -136 184 C-143.28323699 184.46242775 -143.28323699 184.46242775 -145.9375 182.75 C-148.07469873 179.22990797 -148.12883663 175.69820353 -148.14526367 171.65576172 C-148.15164352 170.5871994 -148.15802338 169.51863708 -148.16459656 168.41769409 C-148.16570938 167.26665192 -148.1668222 166.11560974 -148.16796875 164.9296875 C-148.17129715 163.73828156 -148.17462555 162.54687561 -148.17805481 161.31936646 C-148.18311873 158.79592271 -148.1854633 156.27247226 -148.18530273 153.74902344 C-148.18747976 149.91069293 -148.20561532 146.07265429 -148.22460938 142.234375 C-148.22754539 139.77864681 -148.22952879 137.32291726 -148.23046875 134.8671875 C-148.23765427 133.72829071 -148.24483978 132.58939392 -148.25224304 131.41598511 C-148.21930562 119.77382058 -146.95593588 109.05409066 -138.75 100.25 C-132.38248145 94.26507913 -125.44319545 91.8708103 -116.76713562 91.87974548 C-115.7337355 91.87837082 -114.70033539 91.87699615 -113.63562012 91.87557983 C-112.5128064 91.87917511 -111.38999268 91.88277039 -110.2331543 91.88647461 C-109.04248856 91.88632858 -107.85182281 91.88618256 -106.62507629 91.8860321 C-103.3692606 91.8866085 -100.11348814 91.89161636 -96.85768104 91.89860606 C-93.45173821 91.90486649 -90.04579449 91.90544553 -86.6398468 91.90663147 C-80.19429911 91.90973686 -73.74876841 91.91793956 -67.3032282 91.92798096 C-59.24317102 91.94026444 -51.18311108 91.94573089 -43.12304688 91.95117188 C-28.74868468 91.96090543 -14.37435957 91.98093867 0 92 C0 61.64 0 31.28 0 0 Z " fill="#DF66FF" transform="translate(230,296)"/>
<path d="M0 0 C2.20231827 1.42085049 2.78017458 2.3016202 3.55732727 4.77061462 C4.07260522 7.36565392 4.13467534 9.77357267 4.14526367 12.42016602 C4.15164352 13.50552139 4.15802338 14.59087677 4.16459656 15.7091217 C4.16626579 17.46379005 4.16626579 17.46379005 4.16796875 19.25390625 C4.17129715 20.46513657 4.17462555 21.67636688 4.17805481 22.92430115 C4.18311936 25.49062724 4.18546328 28.05695993 4.18530273 30.62329102 C4.187478 34.52306207 4.20560802 38.42254504 4.22460938 42.32226562 C4.22754574 44.82031154 4.22952891 47.31835879 4.23046875 49.81640625 C4.23765427 50.97201553 4.24483978 52.12762482 4.25224304 53.31825256 C4.22053914 64.72994505 3.28822477 74.82938605 -4 84 C-13.71058739 93.33634569 -24.5840351 94.1572345 -37.35131836 94.11352539 C-38.47400116 94.11367142 -39.59668396 94.11381744 -40.75338745 94.1139679 C-44.44889282 94.11327354 -48.14434723 94.10550347 -51.83984375 94.09765625 C-54.40816724 94.09579038 -56.97649109 94.09436727 -59.54481506 94.09336853 C-65.60426353 94.0899459 -71.6636911 94.08207154 -77.72313172 94.07201904 C-85.30304786 94.05971866 -92.88296699 94.05426536 -100.46289062 94.04882812 C-113.97527455 94.03910533 -127.48761886 94.01907032 -141 94 C-141 123.04 -141 152.08 -141 182 C-159.15 182 -177.3 182 -196 182 C-196.12049101 152.12269334 -196.12049101 152.12269334 -196.1507616 137.33876896 C-196.16736989 129.35103553 -196.18843784 121.36339634 -196.22631836 113.37573242 C-196.256301 107.05041559 -196.27559396 100.72516995 -196.28226548 94.39978403 C-196.28616287 91.0531486 -196.29686117 87.70687741 -196.31719017 84.36027718 C-196.33902399 80.61644635 -196.34196434 76.87303483 -196.34057617 73.12915039 C-196.351362 72.03006851 -196.36214783 70.93098663 -196.3732605 69.79859924 C-196.33218423 59.53464863 -194.05640975 51.60561145 -187 44 C-178.52887606 36.00641491 -167.77968709 35.56425466 -156.69091797 35.67871094 C-154.70224715 35.68032632 -152.71357631 35.68193331 -150.72490525 35.68322325 C-148.60686607 35.68726146 -146.4889694 35.69849467 -144.37096786 35.71157074 C-139.94045138 35.73766525 -135.51019442 35.7363942 -131.07962036 35.73028564 C-118.48802042 35.71674302 -105.89665987 35.73441257 -93.30517578 35.79052734 C-86.33546075 35.82135204 -79.36617553 35.82705198 -72.3964206 35.80564141 C-67.99749546 35.7935647 -63.60014493 35.81225036 -59.20141959 35.85412645 C-55.81753275 35.87720259 -52.43421674 35.85446805 -49.05029297 35.83886719 C-47.84176666 35.85939651 -46.63324036 35.87992584 -45.38809204 35.90107727 C-38.36303081 35.81544647 -34.50723565 34.86310488 -29.52885628 29.77336502 C-29.02433371 29.18815456 -28.51981113 28.60294411 -28 28 C-27.19691406 27.0821875 -26.39382813 26.164375 -25.56640625 25.21875 C-20.94609406 18.95025627 -16.78505175 12.57101161 -12.91821289 5.8125 C-9.50333439 -0.10610357 -6.76078352 -0.77582762 0 0 Z " fill="#C853FF" transform="translate(426,32)"/>
<path d="M0 0 C6.16755086 6.34894941 9.08653559 12.33891787 10.125 21.1875 C9.78354775 29.91587318 7.53390887 36.33005049 1.75 42.875 C-5.01342663 48.8332568 -11.55861536 51.75974187 -20.6640625 51.5078125 C-28.37339875 50.39091219 -35.5235548 47.36417543 -40.4296875 41.25 C-46.10873811 33.4243226 -47.55430529 26.39062688 -46.41796875 16.83203125 C-44.85294132 9.20955951 -40.53347843 2.78904929 -34.0625 -1.5 C-22.64559912 -8.1984769 -11.01581581 -6.94475345 0 0 Z " fill="#E369FF" transform="translate(201.875,142.8125)"/>
<path d="M0 0 C7.69127946 6.61807768 11.38556394 13.36409057 12.3125 23.375 C11.43194822 33.5894007 7.7992043 40.22830991 0 47 C-7.52828354 51.90243894 -15.40203733 52.76533634 -24.0625 50.9375 C-32.32847656 48.60283486 -37.81505294 44.50240589 -42.03515625 37 C-45.88552275 29.0186735 -46.09086068 21.60258836 -43.3125 13.3125 C-40.18453201 5.49802945 -35.62389509 0.66719004 -28 -3 C-18.66323664 -6.46059853 -8.27848738 -5.62634039 0 0 Z " fill="#C14EFF" transform="translate(363,142)"/>
<path d="M0 0 C6.82561413 3.99276121 12.55058681 10.0568214 15.05859375 17.70703125 C16.58639797 26.19658255 15.89716338 34.35041535 11.4375 41.8125 C6.96967699 47.64184921 1.66107559 52.07409093 -5.5625 53.8125 C-14.68494412 54.93542688 -21.93223467 54.08379017 -29.5625 48.8125 C-34.69733671 44.59052315 -39.36049107 38.49170424 -40.5625 31.8125 C-41.4399068 22.00280436 -39.79317196 14.7046604 -34.375 6.5 C-25.20316323 -2.26419958 -11.79932216 -5.66865026 0 0 Z " fill="#C550FF" transform="translate(341.5625,321.1875)"/>
<path d="M0 0 C7.10299811 7.43337011 9.10806884 15.07348085 9.03515625 25.15625 C8.30509564 32.83419079 4.59594168 38.91281665 -1.3125 43.8125 C-8.99613551 49.53435623 -15.88191839 50.7412694 -25.3125 49.8125 C-33.92652063 47.85701831 -39.77542784 42.99820749 -44.6953125 35.78515625 C-48.19461558 29.21478649 -48.26731162 22.07236079 -47.3125 14.8125 C-44.25804853 5.37374423 -37.99823704 -0.69785461 -29.3125 -5.1875 C-18.92034523 -8.59441259 -8.80821877 -5.81674825 0 0 Z " fill="#E66CFF" transform="translate(185.3125,325.1875)"/>
</svg>
